<?xml version="1.0" encoding="UTF-8"?>
<!DOCTYPE svg PUBLIC "-//W3C//DTD SVG 1.1//EN" "http://www.w3.org/Graphics/SVG/1.1/DTD/svg11.dtd">
<!-- Creator: CorelDRAW X8 -->
<svg xmlns="http://www.w3.org/2000/svg" xml:space="preserve" width="100%" height="100%" version="1.1" style="shape-rendering:geometricPrecision; text-rendering:geometricPrecision; image-rendering:optimizeQuality; fill-rule:evenodd; clip-rule:evenodd"
viewBox="0 0 2000 2000"
 xmlns:xlink="http://www.w3.org/1999/xlink">
 <defs>
  <style type="text/css">
   <![CDATA[
    .fil3 {fill:#ED3237;fill-rule:nonzero}
    .fil2 {fill:url(#id0)}
    .fil0 {fill:url(#id1)}
    .fil1 {fill:url(#id2)}
   ]]>
  </style>
  <linearGradient id="id0" gradientUnits="userSpaceOnUse" x1="726.346" y1="983.984" x2="1667.61" y2="983.984">
   <stop offset="0" style="stop-opacity:1; stop-color:#FEFEFE"/>
   <stop offset="0.0392157" style="stop-opacity:1; stop-color:#FEFEFE"/>
   <stop offset="0.121569" style="stop-opacity:1; stop-color:#707071"/>
   <stop offset="0.388235" style="stop-opacity:1; stop-color:#707071"/>
   <stop offset="1" style="stop-opacity:1; stop-color:#FEFEFE"/>
  </linearGradient>
  <linearGradient id="id1" gradientUnits="userSpaceOnUse" x1="1024.06" y1="1834.47" x2="267.729" y2="212.514">
   <stop offset="0" style="stop-opacity:1; stop-color:white"/>
   <stop offset="0.0862745" style="stop-opacity:1; stop-color:white"/>
   <stop offset="0.231373" style="stop-opacity:1; stop-color:#707071"/>
   <stop offset="0.560784" style="stop-opacity:1; stop-color:#707071"/>
   <stop offset="1" style="stop-opacity:1; stop-color:white"/>
  </linearGradient>
  <linearGradient id="id2" gradientUnits="userSpaceOnUse" x1="382.489" y1="1620.8" x2="1795.85" y2="961.735">
   <stop offset="0" style="stop-opacity:1; stop-color:white"/>
   <stop offset="0.105882" style="stop-opacity:1; stop-color:white"/>
   <stop offset="0.278431" style="stop-opacity:1; stop-color:#707071"/>
   <stop offset="0.611765" style="stop-opacity:1; stop-color:#707071"/>
   <stop offset="1" style="stop-opacity:1; stop-color:white"/>
  </linearGradient>
 </defs>
 <g id="__x0023_Layer_x0020_1">
  <metadata id="CorelCorpID_0Corel-Layer"/>
  <g id="_1234708651328">
  </g>
  <polygon class="fil0" points="1023,1835 266,213 269,212 1025,1834 "/>
  <polygon class="fil1" points="382,1619 1795,960 1796,963 383,1622 "/>
  <path class="fil2" d="M1588 156l3 2c3,-3 6,-5 8,-8l-2 -2c-3,2 -6,5 -9,8zm0 0l3 2c-462,451 -775,1053 -861,1726l-4 0c87,-674 400,-1277 862,-1728zm9 -8l2 2c23,-22 45,-43 69,-64l-3 -2c-23,21 -46,42 -68,64z"/>
  <polygon class="fil3" points="827,1415 846,1406 837,1387 818,1396 "/>
 </g>
</svg>
