<?xml version="1.0" encoding="UTF-8"?>
<!DOCTYPE svg PUBLIC "-//W3C//DTD SVG 1.1//EN" "http://www.w3.org/Graphics/SVG/1.1/DTD/svg11.dtd">
<!-- Creator: CorelDRAW X8 -->
<svg xmlns="http://www.w3.org/2000/svg" xml:space="preserve" width="3.49999in" height="1.49999in" version="1.1" style="shape-rendering:geometricPrecision; text-rendering:geometricPrecision; image-rendering:optimizeQuality; fill-rule:evenodd; clip-rule:evenodd"
viewBox="0 0 3500 1500"
 xmlns:xlink="http://www.w3.org/1999/xlink">
 <defs>
  <style type="text/css">
   <![CDATA[
    .fil1 {fill:#777777;fill-rule:nonzero}
    .fil2 {fill:#999999;fill-rule:nonzero}
    .fil0 {fill:red;fill-rule:nonzero}
   ]]>
  </style>
 </defs>
 <g id="__x0023_Layer_x0020_1">
  <metadata id="CorelCorpID_0Corel-Layer"/>
  <path class="fil0" d="M832 764c-67,-72 -172,-95 -263,-59 -92,37 -152,125 -152,224 0,99 60,187 152,223 91,37 196,14 263,-58 -12,-16 -22,-32 -30,-50 -49,62 -132,85 -206,60 -74,-26 -124,-96 -124,-175 0,-79 50,-149 124,-175 74,-26 157,-2 206,60 8,-18 18,-35 30,-50z"/>
  <path class="fil1" d="M534 435c-5,14 -13,25 -22,32 -10,8 -22,11 -36,11 -9,0 -17,-1 -24,-4 -8,-3 -14,-8 -20,-14 -6,-6 -10,-13 -13,-21 -3,-7 -5,-15 -5,-23 0,-9 2,-16 4,-24 3,-7 8,-14 13,-20 6,-6 13,-11 21,-15 7,-3 16,-5 24,-5 14,0 26,4 36,12 10,7 17,18 22,31l-24 0c-3,-7 -8,-12 -14,-16 -6,-4 -13,-5 -21,-5 -11,0 -20,4 -28,12 -7,8 -11,18 -11,29 0,12 4,22 12,30 7,8 17,12 28,12 7,0 14,-2 20,-6 6,-4 11,-9 14,-16l24 0zm49 -20c0,12 4,22 12,30 7,8 17,12 28,12 11,0 20,-4 28,-12 7,-8 11,-18 11,-30 0,-12 -4,-22 -11,-30 -8,-8 -17,-12 -28,-12 -11,0 -21,4 -28,12 -8,8 -12,18 -12,30zm-22 1c0,-9 2,-17 4,-24 3,-7 7,-14 13,-20 6,-6 13,-11 20,-15 8,-3 16,-5 24,-5 8,0 16,2 24,5 7,3 14,7 20,14 6,6 10,12 13,20 4,7 5,15 5,23 0,8 -1,16 -4,24 -3,8 -7,14 -13,20 -6,7 -12,12 -20,15 -8,4 -16,6 -24,6 -9,0 -17,-2 -24,-5 -8,-3 -14,-8 -20,-14 -6,-6 -10,-13 -13,-21 -3,-7 -5,-15 -5,-23zm176 59l-21 0 0 -119 20 0 0 14c3,-6 7,-10 12,-12 5,-3 10,-4 16,-4l0 22c-10,1 -16,4 -21,9 -4,5 -6,13 -6,24l0 66zm77 0l-22 0 0 -119 21 0 0 13c4,-5 9,-9 15,-11 5,-3 11,-4 18,-4 16,0 28,4 36,14 9,9 13,22 13,39l0 68 -22 0 0 -63c0,-13 -2,-22 -7,-28 -5,-6 -12,-9 -22,-9 -10,0 -18,3 -23,10 -5,8 -7,19 -7,36l0 54zm211 -71c-2,-10 -7,-17 -13,-23 -7,-5 -15,-8 -24,-8 -9,0 -18,3 -25,8 -6,6 -11,14 -14,23l76 0zm-76 19c1,10 6,18 13,25 7,6 16,9 26,9 7,0 13,-2 19,-5 6,-4 11,-8 14,-15l24 0c-5,14 -13,24 -23,31 -10,7 -21,10 -34,10 -9,0 -17,-1 -24,-4 -8,-3 -14,-8 -20,-14 -6,-6 -10,-13 -13,-21 -4,-8 -5,-15 -5,-24 0,-8 1,-16 4,-23 3,-7 7,-14 13,-20 6,-7 12,-11 20,-15 7,-3 15,-5 24,-5 11,0 21,3 30,8 9,4 16,11 22,20 3,5 6,11 8,18 1,6 2,14 2,22l0 3 -100 0zm153 52l-21 0 0 -119 20 0 0 14c3,-6 7,-10 12,-12 5,-3 10,-4 16,-4l0 22c-10,1 -16,4 -21,9 -4,5 -6,13 -6,24l0 66zm47 -38l20 0c0,6 2,11 6,15 3,4 7,6 13,6 5,0 9,-1 12,-4 3,-3 5,-7 5,-12 0,-4 -1,-8 -4,-11 -2,-3 -6,-5 -11,-7 -1,-1 -4,-2 -7,-3 -8,-3 -14,-6 -16,-8 -4,-3 -8,-7 -10,-11 -2,-4 -3,-9 -3,-15 0,-10 4,-18 11,-25 6,-7 15,-10 24,-10 11,0 19,3 25,9 6,6 9,14 9,25l-20 0c-1,-4 -2,-8 -5,-10 -2,-3 -5,-4 -10,-4 -4,0 -7,1 -9,4 -3,3 -4,6 -4,10 0,7 6,12 17,16 3,1 6,2 8,3 9,4 16,8 19,14 4,5 6,13 6,22 0,11 -3,20 -11,27 -7,7 -16,10 -27,10 -11,0 -20,-3 -27,-11 -7,-7 -10,-18 -11,-30zm115 38l0 -100 -17 0 0 -19 17 0 0 -39 21 0 0 39 17 0 0 19 -17 0 0 100 -21 0zm82 -60c0,12 3,22 11,30 7,8 17,12 28,12 11,0 21,-4 28,-12 7,-8 11,-18 11,-30 0,-12 -4,-22 -11,-30 -7,-8 -17,-12 -28,-12 -11,0 -21,4 -28,12 -8,8 -11,18 -11,30zm-23 1c0,-9 2,-17 5,-24 3,-7 7,-14 12,-20 6,-6 13,-11 21,-15 7,-3 15,-5 23,-5 9,0 17,2 24,5 8,3 14,7 20,14 6,6 11,12 14,20 3,7 4,15 4,23 0,8 -1,16 -4,24 -3,8 -7,14 -12,20 -6,7 -13,12 -21,15 -7,4 -15,6 -24,6 -9,0 -17,-2 -24,-5 -7,-3 -14,-8 -20,-14 -5,-6 -10,-13 -13,-21 -3,-7 -5,-15 -5,-23zm176 59l-21 0 0 -119 20 0 0 13c5,-5 10,-9 15,-11 5,-3 12,-4 19,-4 15,0 27,4 36,14 8,9 12,22 12,39l0 68 -22 0 0 -63c0,-13 -2,-22 -7,-28 -4,-6 -12,-9 -21,-9 -11,0 -19,3 -24,10 -4,8 -7,19 -7,36l0 54zm212 -71c-3,-10 -7,-17 -14,-23 -7,-5 -15,-8 -24,-8 -9,0 -17,3 -24,8 -7,6 -12,14 -14,23l76 0zm-77 19c2,10 6,18 13,25 8,6 16,9 26,9 7,0 14,-2 19,-5 6,-4 11,-8 14,-15l25 0c-6,14 -14,24 -23,31 -10,7 -22,10 -35,10 -9,0 -17,-1 -24,-4 -7,-3 -14,-8 -20,-14 -6,-6 -10,-13 -13,-21 -3,-8 -5,-15 -5,-24 0,-8 2,-16 5,-23 2,-7 7,-14 12,-20 6,-7 13,-11 20,-15 8,-3 16,-5 25,-5 10,0 20,3 29,8 9,4 16,11 22,20 4,5 6,11 8,18 2,6 2,14 2,22l0 3 -100 0zm351 -5c0,-11 -4,-21 -10,-28 -7,-7 -16,-10 -27,-10 -5,0 -10,0 -14,2 -5,2 -9,4 -13,8 -6,4 -10,10 -13,17 -3,6 -4,14 -4,21 0,11 3,20 10,28 7,7 16,10 27,10 12,0 23,-5 31,-14 8,-9 13,-20 13,-34zm1 57l-14 0 3 -10c-6,4 -11,7 -17,10 -6,2 -12,3 -18,3 -15,0 -27,-5 -36,-14 -9,-10 -14,-22 -14,-37 0,-8 1,-16 4,-23 3,-8 8,-14 14,-20 5,-5 11,-9 18,-12 6,-3 14,-4 21,-4 10,0 19,2 26,5 7,4 13,10 17,17l11 -53 12 0 -27 138zm131 -60c-1,-11 -5,-19 -12,-26 -6,-6 -15,-9 -25,-9 -11,0 -20,3 -27,9 -8,7 -13,15 -16,26l80 0zm10 25c-5,13 -12,22 -22,28 -9,7 -20,10 -33,10 -15,0 -27,-5 -36,-14 -9,-10 -14,-22 -14,-37 0,-8 2,-17 5,-25 4,-8 9,-15 15,-20 5,-5 11,-8 17,-11 7,-2 14,-3 21,-3 15,0 27,5 36,14 10,10 14,23 14,39 0,2 0,3 0,4 0,0 0,1 0,2l-94 0c0,12 3,21 10,28 7,8 15,11 26,11 9,0 17,-2 23,-6 7,-4 12,-11 16,-20l16 0zm21 5l13 0 0 1c0,6 1,11 5,14 3,4 7,6 12,6 5,0 9,-2 12,-6 4,-4 6,-8 6,-13 0,-7 -5,-13 -16,-20 0,-1 0,-1 -1,-1 -8,-6 -14,-11 -17,-15 -2,-4 -4,-9 -4,-14 0,-8 3,-15 9,-21 5,-6 12,-8 20,-8 8,0 14,2 19,6 4,5 6,11 6,18 0,2 0,2 0,3 0,1 0,1 0,2l-12 0c0,-1 0,-1 0,-2 0,0 0,-1 0,-1 0,-4 -1,-8 -3,-11 -3,-2 -6,-3 -10,-3 -5,0 -8,1 -11,4 -3,3 -5,7 -5,11 0,6 6,12 17,20 1,1 1,1 2,2 0,0 0,0 0,0 13,8 19,18 19,27 0,10 -3,18 -9,25 -6,6 -14,9 -23,9 -9,0 -15,-3 -21,-8 -5,-6 -8,-13 -8,-21 0,-1 0,-2 0,-2 0,-1 0,-1 0,-2zm105 -85l5 -23 12 0 -4 23 -13 0zm11 11l-20 104 -13 0 21 -104 12 0zm137 1l-18 87c0,1 0,2 0,3 -4,17 -7,29 -12,36 -3,6 -9,10 -16,13 -7,4 -15,5 -24,5 -14,0 -25,-3 -33,-9 -8,-6 -13,-15 -15,-25l12 0c2,7 6,13 11,16 6,4 13,6 22,6 12,0 21,-3 28,-9 6,-6 10,-15 12,-28 -5,3 -10,6 -16,8 -6,2 -12,3 -18,3 -15,0 -27,-5 -36,-14 -9,-10 -14,-22 -14,-37 0,-8 1,-16 4,-23 3,-8 8,-14 13,-20 6,-5 12,-9 18,-12 7,-3 14,-4 22,-4 10,0 19,2 26,5 7,4 12,10 17,17l3 -18 14 0zm-22 46c0,-11 -4,-21 -10,-28 -7,-7 -16,-10 -27,-10 -5,0 -10,0 -15,2 -4,2 -9,4 -12,8 -6,4 -10,10 -13,17 -3,6 -4,14 -4,21 0,11 3,20 10,28 7,7 16,10 27,10 12,0 23,-5 31,-14 8,-9 13,-20 13,-34zm68 -47l-2 10c5,-4 10,-7 16,-9 5,-2 10,-3 15,-3 11,0 20,3 27,9 7,7 11,15 11,25 0,4 0,8 -1,12 0,4 -1,9 -2,13l-9 47 -13 0 11 -53c0,-3 1,-6 1,-8 0,-3 0,-5 0,-8 0,-8 -2,-14 -6,-18 -5,-5 -11,-7 -19,-7 -10,0 -19,3 -25,9 -6,7 -11,16 -13,30l-12 55 -12 0 20 -104 13 0zm277 1l-17 87c0,1 0,2 -1,3 -3,17 -7,29 -11,36 -4,6 -9,10 -16,13 -7,4 -15,5 -25,5 -13,0 -24,-3 -32,-9 -9,-6 -14,-15 -15,-25l11 0c3,7 7,13 12,16 6,4 13,6 22,6 12,0 21,-3 28,-9 6,-6 10,-15 12,-28 -5,3 -10,6 -16,8 -6,2 -12,3 -18,3 -15,0 -27,-5 -36,-14 -10,-10 -14,-22 -14,-37 0,-8 1,-16 4,-23 3,-8 7,-14 13,-20 5,-5 11,-9 18,-12 7,-3 14,-4 22,-4 10,0 18,2 26,5 7,4 12,10 16,17l4 -18 13 0zm-22 46c0,-11 -3,-21 -10,-28 -6,-7 -15,-10 -26,-10 -5,0 -10,0 -15,2 -5,2 -9,4 -13,8 -5,4 -9,10 -12,17 -3,6 -5,14 -5,21 0,11 4,20 11,28 7,7 16,10 27,10 12,0 22,-5 31,-14 8,-9 12,-20 12,-34zm48 57l-12 0 20 -104 12 0 -2 8c4,-4 9,-7 14,-8 5,-2 11,-3 18,-3l2 0 -2 12 -1 0c-10,0 -18,3 -25,9 -6,5 -10,13 -12,24l-12 62zm120 -96c-12,0 -23,5 -31,14 -8,10 -12,21 -12,35 0,11 3,20 10,28 7,7 15,10 25,10 6,0 11,0 16,-2 5,-2 9,-5 13,-8 5,-5 9,-10 12,-17 3,-7 5,-14 5,-21 0,-12 -4,-21 -11,-28 -7,-7 -16,-11 -27,-11zm-57 48c0,-9 2,-17 5,-25 3,-8 8,-15 15,-20 5,-5 11,-8 18,-11 6,-2 13,-4 20,-4 15,0 27,5 36,15 10,9 14,21 14,36 0,8 -1,16 -4,23 -3,8 -7,14 -13,20 -5,6 -11,10 -19,13 -7,3 -14,4 -23,4 -14,0 -26,-5 -35,-14 -10,-10 -14,-22 -14,-37zm199 48l2 -10c-5,4 -10,8 -15,10 -6,2 -11,3 -17,3 -11,0 -20,-3 -27,-10 -7,-6 -10,-14 -10,-24 0,-4 0,-8 0,-13 1,-4 1,-8 2,-12l10 -48 13 0 -11 54c-1,3 -1,6 -1,8 -1,3 -1,5 -1,7 0,8 2,14 7,19 4,4 10,6 18,6 11,0 19,-3 26,-9 6,-6 10,-16 13,-29l11 -56 13 0 -20 104 -13 0zm69 -48c0,12 3,21 10,28 7,8 16,11 26,11 6,0 11,-1 15,-3 5,-1 9,-4 13,-7 5,-5 10,-10 13,-17 3,-7 4,-14 4,-21 0,-12 -3,-21 -10,-28 -7,-7 -16,-10 -28,-10 -12,0 -22,4 -30,13 -9,10 -13,21 -13,34zm-1 -56l13 0 -2 10c4,-4 10,-8 15,-10 6,-2 12,-3 19,-3 15,0 27,5 37,14 9,9 14,21 14,36 0,9 -2,16 -5,24 -3,7 -7,14 -13,20 -5,5 -11,9 -18,12 -6,2 -14,4 -22,4 -9,0 -18,-2 -25,-6 -7,-3 -13,-9 -17,-16l-11 53 -13 0 28 -138z"/>
  <path class="fil0" d="M1269 552l0 200c71,-65 172,-82 260,-43 87,38 143,125 143,220l0 185c-5,94 -61,178 -147,218 -85,41 -186,32 -262,-24l33 -45c60,44 138,51 205,20 67,-32 111,-97 116,-171l0 -29c-48,57 -118,89 -192,86 -74,-2 -143,-38 -187,-97 -60,80 -163,116 -260,88 -96,-27 -166,-112 -173,-212 -8,-101 47,-195 138,-237 92,-42 199,-24 271,47l0 -206 55 0zm348 377l0 0c0,-102 -83,-185 -185,-185 -102,0 -185,83 -185,185 0,102 83,185 185,185 102,0 185,-83 185,-185zm-618 -179l0 0c-82,20 -139,94 -139,179 0,85 57,159 139,179 83,21 169,-17 209,-92 -22,-56 -22,-118 0,-174 -40,-75 -126,-113 -209,-92z"/>
  <path class="fil2" d="M1944 825l0 -29c0,-10 -2,-18 -7,-24 -5,-5 -12,-8 -20,-8 -8,0 -14,2 -19,8 -6,5 -8,12 -8,20 0,9 2,16 8,21 5,5 11,8 19,8 4,0 8,-1 12,-3 4,-1 7,-4 11,-8l0 8c-4,3 -7,5 -11,6 -4,2 -8,3 -12,3 -5,0 -9,-1 -13,-3 -4,-2 -8,-4 -11,-7 -3,-4 -5,-7 -7,-11 -1,-5 -2,-9 -2,-13 0,-10 3,-18 9,-25 6,-6 14,-9 24,-9 6,0 11,1 16,4 5,3 9,7 12,12 2,2 3,5 4,9 0,3 1,7 1,12l0 29 -6 0zm32 0l0 -65 6 0 0 13c2,-5 6,-8 9,-10 4,-2 9,-3 14,-3 0,0 1,0 1,0 1,0 2,0 3,0l0 5c-1,0 -1,0 -1,0 -2,0 -3,0 -4,0 -7,0 -12,2 -16,7 -4,5 -6,11 -6,19l0 34 -6 0zm89 -60l-6 0c-9,0 -17,2 -22,8 -6,5 -9,11 -9,20 0,8 3,14 9,19 5,6 13,8 22,8l6 0 0 5 -5 0c-11,0 -21,-3 -28,-9 -7,-5 -10,-13 -10,-23 0,-6 1,-11 4,-16 2,-4 6,-8 10,-11 3,-2 7,-4 10,-5 4,-1 9,-1 14,-1l5 0 0 5zm20 60l0 -97 5 0 0 43c3,-4 6,-7 10,-9 4,-2 8,-4 13,-4 8,0 14,3 18,8 5,5 7,13 7,22l0 37 -5 0 0 -39c0,-6 -2,-12 -6,-16 -4,-4 -8,-6 -14,-6 -7,0 -12,2 -16,7 -4,5 -7,11 -7,19l0 35 -5 0zm80 0l0 -65 5 0 0 65 -5 0zm-2 -84c0,-1 1,-2 1,-3 1,0 2,-1 3,-1 1,0 2,1 3,1 1,1 1,2 1,3 0,1 0,2 -1,3 -1,1 -2,1 -3,1 -1,0 -2,0 -3,-1 0,-1 -1,-2 -1,-3zm34 0l5 0 0 19 24 0 0 5 -24 0 0 37c0,6 2,11 5,14 3,3 8,4 15,4l4 0 0 5 -3 0c-9,0 -16,-2 -20,-5 -4,-4 -6,-10 -6,-18l0 -61zm112 52c0,10 -4,18 -10,24 -6,6 -14,10 -23,10 -4,0 -8,-1 -12,-3 -4,-2 -8,-4 -11,-7 -3,-4 -6,-7 -7,-11 -2,-4 -3,-9 -3,-13 0,-5 1,-9 3,-13 1,-5 4,-8 7,-12 3,-3 7,-5 11,-7 4,-2 8,-2 13,-2 6,0 11,1 16,4 4,2 8,7 12,12l-46 30 -3 -4 41 -27c-3,-3 -6,-6 -9,-8 -4,-2 -7,-2 -11,-2 -8,0 -15,2 -20,8 -5,5 -8,12 -8,20 0,8 3,15 8,21 5,5 12,8 19,8 8,0 14,-2 19,-8 5,-5 8,-11 8,-20l6 0zm62 -28l-6 0c-10,0 -17,2 -23,8 -6,5 -9,11 -9,20 0,8 3,14 9,19 6,6 14,8 23,8l6 0 0 5 -5 0c-12,0 -21,-3 -28,-9 -7,-5 -11,-13 -11,-23 0,-6 2,-11 4,-16 3,-4 6,-8 11,-11 3,-2 6,-4 10,-5 4,-1 8,-1 14,-1l5 0 0 5zm19 -24l5 0 0 19 23 0 0 5 -23 0 0 37c0,6 2,11 5,14 3,3 8,4 14,4l4 0 0 5 -2 0c-9,0 -16,-2 -20,-5 -4,-4 -6,-10 -6,-18l0 -61zm95 19l6 0 0 37c0,9 -2,16 -7,22 -5,5 -12,8 -20,8 -8,0 -14,-3 -19,-8 -5,-6 -7,-13 -7,-22l0 -37 5 0 0 39c0,6 2,12 6,16 4,4 9,6 15,6 7,0 12,-2 15,-6 4,-4 6,-10 6,-16l0 -39zm32 65l0 -65 6 0 0 13c3,-5 6,-8 10,-10 4,-2 8,-3 13,-3 0,0 1,0 1,0 1,0 2,0 3,0l0 5c0,0 -1,0 -1,0 -2,0 -3,0 -4,0 -6,0 -12,2 -16,7 -4,5 -6,11 -6,19l0 34 -6 0zm112 -32c0,10 -4,18 -10,24 -6,6 -14,10 -23,10 -4,0 -9,-1 -13,-3 -4,-2 -7,-4 -10,-7 -4,-4 -6,-7 -8,-11 -1,-4 -2,-9 -2,-13 0,-5 1,-9 2,-13 2,-5 4,-8 8,-12 3,-3 6,-5 10,-7 5,-2 9,-2 13,-2 6,0 12,1 16,4 5,2 9,7 12,12l-45 30 -3 -4 41 -27c-3,-3 -6,-6 -9,-8 -4,-2 -8,-2 -12,-2 -7,0 -14,2 -19,8 -6,5 -8,12 -8,20 0,8 2,15 8,21 5,5 11,8 19,8 8,0 14,-2 19,-8 5,-5 8,-11 8,-20l6 0z"/>
  <path class="fil2" d="M1944 1094l6 0 0 60c0,5 -1,9 -1,13 -1,3 -2,6 -4,9 -3,5 -7,9 -12,12 -5,3 -10,4 -16,4 -10,0 -18,-3 -24,-9 -6,-7 -9,-15 -9,-25 0,-4 1,-9 2,-13 2,-4 4,-8 7,-11 3,-3 7,-6 11,-7 4,-2 8,-3 13,-3 4,0 8,1 12,2 4,2 7,4 11,7l0 8c-4,-4 -7,-7 -11,-9 -4,-2 -8,-2 -12,-2 -8,0 -14,2 -19,8 -6,5 -8,12 -8,20 0,9 2,15 8,21 5,5 11,8 19,8 8,0 15,-3 20,-9 5,-5 7,-13 7,-23l0 -61zm92 65c-1,10 -4,18 -10,24 -6,6 -14,9 -23,9 -5,0 -9,-1 -13,-2 -4,-2 -7,-4 -10,-8 -4,-3 -6,-7 -8,-11 -1,-4 -2,-8 -2,-13 0,-4 1,-9 2,-13 2,-4 4,-8 8,-11 3,-3 6,-6 10,-7 4,-2 9,-3 13,-3 6,0 12,2 16,4 5,3 9,7 12,13l-45 30 -3 -4 40 -27c-2,-4 -5,-6 -8,-8 -4,-2 -8,-3 -12,-3 -8,0 -14,3 -19,9 -6,5 -8,12 -8,20 0,8 2,15 8,20 5,6 11,9 19,9 7,0 14,-3 19,-8 5,-5 7,-12 8,-20l6 0zm12 -34l6 0 21 58c1,1 1,2 1,2 1,1 1,1 2,1 0,0 1,0 1,-1 0,0 1,-1 1,-2l21 -58 7 0 -23 61c-1,2 -2,4 -3,5 -1,1 -2,1 -4,1 -2,0 -3,0 -5,-1 -1,-1 -2,-3 -3,-5l-22 -61zm138 34c0,10 -4,18 -10,24 -6,6 -14,9 -23,9 -4,0 -9,-1 -13,-2 -4,-2 -7,-4 -10,-8 -4,-3 -6,-7 -8,-11 -1,-4 -2,-8 -2,-13 0,-4 1,-9 2,-13 2,-4 4,-8 8,-11 3,-3 6,-6 10,-7 4,-2 9,-3 13,-3 6,0 12,2 16,4 5,3 9,7 12,13l-45 30 -3 -4 41 -27c-3,-4 -6,-6 -9,-8 -4,-2 -8,-3 -12,-3 -7,0 -14,3 -19,9 -6,5 -8,12 -8,20 0,8 2,15 8,20 5,6 11,9 19,9 7,0 14,-3 19,-8 5,-5 8,-12 8,-20l6 0zm21 32l0 -97 5 0 0 97 -5 0zm26 -33c0,-4 1,-9 3,-13 1,-4 4,-8 7,-11 3,-3 7,-6 11,-7 4,-2 8,-3 12,-3 5,0 9,1 13,3 4,1 8,4 11,7 3,3 5,7 7,11 2,4 3,9 3,13 0,5 -1,9 -3,13 -2,4 -4,8 -7,11 -3,4 -7,6 -11,8 -4,1 -8,2 -13,2 -4,0 -8,-1 -12,-2 -4,-2 -8,-4 -11,-8 -3,-3 -6,-7 -7,-11 -2,-4 -3,-8 -3,-13zm6 0c0,8 3,15 8,20 5,6 12,9 19,9 8,0 14,-3 20,-9 5,-5 8,-12 8,-20 0,-8 -3,-15 -8,-20 -6,-6 -12,-9 -20,-9 -7,0 -14,3 -19,9 -5,5 -8,12 -8,20zm86 63l-5 0 0 -59c0,-5 0,-9 1,-12 0,-4 2,-7 3,-10 3,-5 7,-9 12,-12 5,-2 11,-4 17,-4 9,0 17,3 23,10 6,6 9,14 9,24 0,5 0,9 -2,13 -2,4 -4,8 -7,11 -3,4 -6,6 -10,8 -5,1 -9,2 -14,2 -4,0 -8,-1 -12,-2 -4,-1 -7,-4 -10,-7l0 -7c3,3 6,6 10,8 4,2 8,3 12,3 8,0 15,-3 20,-8 5,-6 8,-13 8,-21 0,-8 -3,-15 -8,-21 -5,-5 -12,-8 -20,-8 -8,0 -14,3 -19,9 -5,6 -8,14 -8,24l0 59zm81 -30l0 -40c0,-8 2,-15 6,-20 4,-4 10,-7 18,-7 4,0 8,1 12,3 3,2 6,6 9,10 2,-4 5,-8 9,-10 3,-2 7,-3 11,-3 8,0 14,3 18,7 5,5 7,12 7,20l0 40 -6 0 0 -42c0,-6 -2,-11 -5,-14 -3,-4 -8,-6 -13,-6 -6,0 -10,2 -14,6 -3,3 -5,8 -5,14l0 42 -5 0 0 -42c0,-6 -2,-11 -5,-14 -4,-4 -8,-6 -14,-6 -5,0 -9,2 -13,6 -3,3 -5,8 -5,14l0 42 -5 0zm176 -32c-1,10 -4,18 -10,24 -6,6 -14,9 -23,9 -5,0 -9,-1 -13,-2 -4,-2 -7,-4 -10,-8 -4,-3 -6,-7 -8,-11 -1,-4 -2,-8 -2,-13 0,-4 1,-9 2,-13 2,-4 4,-8 8,-11 3,-3 6,-6 10,-7 4,-2 9,-3 13,-3 6,0 12,2 16,4 5,3 9,7 12,13l-46 30 -2 -4 40 -27c-2,-4 -5,-6 -8,-8 -4,-2 -8,-3 -12,-3 -8,0 -14,3 -19,9 -6,5 -8,12 -8,20 0,8 2,15 8,20 5,6 11,9 19,9 7,0 14,-3 19,-8 5,-5 7,-12 8,-20l6 0zm25 32l-5 0 0 -37c0,-9 2,-16 7,-22 5,-5 11,-8 19,-8 8,0 15,3 20,8 4,6 7,13 7,22l0 37 -6 0 0 -39c0,-7 -2,-12 -6,-16 -3,-5 -9,-7 -15,-7 -6,0 -11,2 -15,7 -4,4 -6,9 -6,16l0 39zm72 -84l5 0 0 18 23 0 0 6 -23 0 0 37c0,6 2,10 5,13 3,3 8,5 15,5l3 0 0 5 -2 0c-9,0 -16,-2 -20,-6 -4,-4 -6,-9 -6,-17l0 -61z"/>
  <path class="fil2" d="M1893 1040l-6 0 0 -58c0,-5 1,-9 2,-13 0,-3 1,-6 3,-9 3,-5 7,-9 12,-12 5,-3 11,-4 16,-4 10,0 18,3 24,10 6,6 9,14 9,24 0,5 0,9 -2,13 -2,4 -4,8 -7,11 -3,3 -6,6 -11,7 -4,2 -8,3 -13,3 -4,0 -8,-1 -12,-2 -4,-2 -7,-4 -10,-7l0 -7c3,3 6,6 10,8 4,2 8,3 12,3 8,0 15,-3 20,-9 5,-5 8,-12 8,-20 0,-8 -3,-15 -8,-21 -6,-5 -12,-8 -20,-8 -8,0 -15,3 -20,9 -5,6 -7,13 -7,23l0 59zm81 -29l0 -97 6 0 0 97 -6 0zm87 0l0 -30c0,-10 -2,-17 -7,-23 -5,-6 -11,-9 -20,-9 -7,0 -14,3 -19,8 -5,6 -8,13 -8,21 0,8 3,15 8,20 5,6 11,9 19,9 5,0 9,-1 12,-3 4,-2 8,-5 11,-8l0 7c-3,3 -7,5 -11,7 -3,1 -7,2 -12,2 -4,0 -9,-1 -13,-3 -4,-1 -8,-4 -11,-7 -3,-3 -5,-7 -7,-11 -1,-4 -2,-8 -2,-13 0,-10 3,-18 9,-24 7,-7 15,-10 24,-10 6,0 11,1 16,4 5,3 9,7 13,12 1,3 2,6 3,9 1,4 1,8 1,13l0 29 -6 0zm37 0l-5 0 0 -37c0,-9 2,-17 7,-22 5,-5 11,-8 19,-8 8,0 15,3 20,8 5,5 7,13 7,22l0 37 -6 0 0 -39c0,-7 -2,-12 -5,-17 -4,-4 -9,-6 -16,-6 -6,0 -11,2 -15,6 -4,5 -6,10 -6,17l0 39zm79 0l-6 0 0 -37c0,-9 3,-17 8,-22 5,-5 11,-8 19,-8 8,0 15,3 20,8 4,5 7,13 7,22l0 37 -6 0 0 -39c0,-7 -2,-12 -6,-17 -4,-4 -9,-6 -15,-6 -6,0 -11,2 -15,6 -4,5 -6,10 -6,17l0 39zm74 0l0 -66 6 0 0 66 -6 0zm-1 -84c0,-1 0,-2 1,-3 1,-1 2,-1 3,-1 1,0 2,0 3,1 1,1 1,2 1,3 0,1 0,2 -1,3 -1,0 -2,1 -3,1 -1,0 -2,-1 -3,-1 -1,-1 -1,-2 -1,-3zm39 84l-6 0 0 -37c0,-9 3,-17 8,-22 4,-5 11,-8 19,-8 8,0 15,3 19,8 5,5 8,13 8,22l0 37 -6 0 0 -39c0,-7 -2,-12 -6,-17 -4,-4 -9,-6 -15,-6 -6,0 -11,2 -15,6 -4,5 -6,10 -6,17l0 39zm136 -3c0,10 -3,19 -9,25 -6,6 -14,9 -24,9 -2,0 -5,-1 -9,-1 -3,-1 -6,-2 -10,-3l2 -6c4,2 7,3 10,3 3,1 5,1 8,1 8,0 14,-2 19,-7 5,-5 7,-12 7,-21l0 -27c0,-10 -3,-17 -7,-23 -5,-6 -12,-9 -20,-9 -8,0 -14,3 -20,8 -5,6 -7,13 -7,21 0,8 2,15 7,20 5,6 12,9 20,9 4,0 8,-1 12,-3 4,-2 7,-5 10,-8l0 7c-3,3 -6,5 -10,7 -4,1 -8,2 -12,2 -5,0 -9,-1 -13,-3 -5,-1 -8,-4 -11,-7 -3,-3 -5,-7 -7,-11 -2,-4 -2,-8 -2,-13 0,-10 3,-18 9,-24 6,-7 14,-10 24,-10 5,0 11,1 16,4 5,3 9,7 12,12 2,3 3,6 4,9 0,4 1,8 1,13l0 26z"/>
 </g>
</svg>
